<?xml version="1.0" encoding="UTF-8" standalone="no"?>
<svg
   version="1.1"
   width="1695"
   height="928"
    viewBox="20 200 1600 520"
   id="svg73"
   sodipodi:docname="openzync-logo.svg"
   inkscape:version="1.4.4 (dcaf3e7d9e, 2026-05-05)"
   xmlns:inkscape="http://www.inkscape.org/namespaces/inkscape"
   xmlns:sodipodi="http://sodipodi.sourceforge.net/DTD/sodipodi-0.dtd"
   xmlns="http://www.w3.org/2000/svg"
   xmlns:svg="http://www.w3.org/2000/svg">
  <defs
     id="defs73" />
  <sodipodi:namedview
     id="namedview73"
     pagecolor="#ffffff"
     bordercolor="#000000"
     borderopacity="0.25"
     inkscape:showpageshadow="2"
     inkscape:pageopacity="0.0"
     inkscape:pagecheckerboard="0"
     inkscape:deskcolor="#d1d1d1"
     showgrid="false"
     inkscape:zoom="0.55401654"
     inkscape:cx="782.46762"
     inkscape:cy="416.95506"
     inkscape:window-width="1729"
     inkscape:window-height="897"
     inkscape:window-x="20"
     inkscape:window-y="20"
     inkscape:window-maximized="0"
     inkscape:current-layer="svg73" />
  <g
     id="g76">
    <path
       d="M0 0 C0.79535156 0.350625 1.59070313 0.70125 2.41015625 1.0625 C12.88579527 6.23742974 22.0493697 15.14467959 26.1796875 26.140625 C27.22224302 29.41287954 28.15985607 32.66997498 29 36 C29.25415334 36.95207541 29.25415334 36.95207541 29.51344109 37.92338467 C31.00534838 43.92838226 31.27331336 49.58333523 31.22705078 55.75219727 C31.22734283 56.78738998 31.22763489 57.8225827 31.22793579 58.8891449 C31.22655198 62.28165317 31.21103558 65.67393675 31.1953125 69.06640625 C31.191579 71.43008809 31.18873362 73.79377149 31.18673706 76.15745544 C31.17912718 82.35686571 31.15950147 88.55618119 31.1373291 94.7555542 C31.11681359 101.0902783 31.10772316 107.42501783 31.09765625 113.75976562 C31.07625302 126.17322527 31.04109249 138.5865899 31 151 C21.76 151 12.52 151 3 151 C2.970271 146.86839355 2.970271 146.86839355 2.93994141 142.65332031 C2.87280816 133.51702168 2.79517286 124.38083354 2.71247292 115.24466324 C2.66268766 109.70952066 2.616357 104.17439554 2.578125 98.63916016 C2.54104655 93.28982978 2.49462751 87.94065212 2.44193649 82.59145355 C2.42351172 80.55832366 2.40836061 78.52516119 2.39665604 76.49198151 C2.87773784 52.41632743 2.87773784 52.41632743 -7.32421875 31.37890625 C-17.79632552 22.76199789 -29.82472151 22.12476041 -42.81298828 22.77783203 C-53.13332673 23.82622542 -60.71566267 30.13669817 -67.3125 37.625 C-67.869375 38.40875 -68.42625 39.1925 -69 40 C-69.515625 40.721875 -70.03125 41.44375 -70.5625 42.1875 C-74.30531357 49.51039611 -75.44592704 56.80908093 -75.43237305 64.94775391 C-75.4425647 65.88555695 -75.45275635 66.82335999 -75.46325684 67.7895813 C-75.49315882 70.85197094 -75.5026177 73.91404664 -75.51171875 76.9765625 C-75.52858235 79.11462424 -75.54673484 81.25267616 -75.56611633 83.39071655 C-75.61343975 88.98997938 -75.64336317 94.58920241 -75.66955566 100.18859863 C-75.69945056 105.91357276 -75.74595009 111.63841 -75.79101562 117.36328125 C-75.87684784 128.57546462 -75.94274564 139.78763424 -76 151 C-85.57 151 -95.14 151 -105 151 C-105 100.84 -105 50.68 -105 -1 C-95.76 -1 -86.52 -1 -77 -1 C-76.67 5.93 -76.34 12.86 -76 20 C-75.071875 18.68 -74.14375 17.36 -73.1875 16 C-57.06469194 -4.63200388 -23.47800114 -11.13465265 0 0 Z "
       fill="#78A9F2"
       transform="translate(802,408)"
       id="path8" />
  </g>
  <g
     id="g78">
    <path
       d="M0 0 C3.53936218 2.81266891 6.79901818 5.81001812 10 9 C10.62648438 9.60328125 11.25296875 10.2065625 11.8984375 10.828125 C29.13141461 28.76289756 30 52.36013118 30 76 C-8.61 76 -47.22 76 -87 76 C-83.91068696 91.44656518 -80.80838764 104.11984572 -68 114 C-57.00813143 121.17725629 -42.89632719 124.11024132 -29.98046875 121.60888672 C-15.8284396 118.28076122 -6.54945745 111.86893953 2 100 C7.13791898 101.45999872 11.25819347 103.76946116 15.75 106.5625 C20.29909204 109.41605733 20.29909204 109.41605733 25 112 C23.66955831 117.00606873 21.40573097 120.50852097 18.0625 124.375 C17.57523438 124.94154297 17.08796875 125.50808594 16.5859375 126.09179688 C5.55771978 138.52334821 -10.38391217 146.54410041 -27 148 C-31.54219716 148.19236488 -36.07914756 148.2307583 -40.625 148.25 C-42.41744141 148.2809375 -42.41744141 148.2809375 -44.24609375 148.3125 C-55.56622656 148.361558 -66.11548865 146.64543997 -76.1875 141.3125 C-76.86039063 140.96437256 -77.53328125 140.61624512 -78.2265625 140.25756836 C-96.72634541 130.38850231 -107.72345103 114.31706881 -113.9921875 94.765625 C-120.18937334 71.61024846 -119.00739871 46.50992785 -107.1875 25.3125 C-103.40916574 19.2427425 -99.07881821 14.01741626 -94 9 C-92.98873047 7.95585937 -92.98873047 7.95585937 -91.95703125 6.890625 C-68.58243179 -15.73844314 -26.60964239 -18.46383349 0 0 Z "
       fill="#78A9F1"
       transform="translate(639,415)"
       id="path6" />
    <path
       d="M0 0 C7.41271507 5.88880889 12.7619226 14.04422653 15 23.3125 C15 26.2825 15 29.2525 15 32.3125 C-13.71 32.3125 -42.42 32.3125 -72 32.3125 C-70.42249943 19.69249547 -65.17160466 9.07817101 -55.203125 0.87890625 C-38.87694389 -10.72889273 -16.72521414 -11.32342201 0 0 Z "
       fill="#030405"
       id="path15"
       transform="translate(624,436.6875)" />
  </g>
  <g
     id="g73">
    <path
       d="M0 0 C1.11307022 -0.00160126 1.11307022 -0.00160126 2.24862671 -0.00323486 C13.29423169 0.0197952 22.9254714 0.68185695 33.0625 5.4375 C34.14789062 5.90671875 35.23328125 6.3759375 36.3515625 6.859375 C42.94604302 9.90298139 48.60796437 13.65688383 54.0625 18.4375 C54.68898438 18.98148437 55.31546875 19.52546875 55.9609375 20.0859375 C60.76603797 24.55531043 63.9177028 29.71235637 67.0625 35.4375 C64.77451004 37.94936012 62.43547959 39.50312036 59.46484375 41.13671875 C58.58119141 41.62333984 57.69753906 42.10996094 56.78710938 42.61132812 C55.40749023 43.3605957 55.40749023 43.3605957 54 44.125 C53.07638672 44.63611328 52.15277344 45.14722656 51.20117188 45.67382812 C44.32204398 49.4375 44.32204398 49.4375 42.0625 49.4375 C40.80078125 47.8984375 40.80078125 47.8984375 39.375 45.8125 C32.12762466 35.91066429 22.31121819 30.62616068 10.40625 27.94140625 C-5.12959299 25.60014019 -18.05034357 28.24233973 -30.9375 37.4375 C-40.64992085 45.88308335 -47.95540212 58.68561143 -49.13891602 71.64257812 C-49.86782889 88.33414563 -47.6321656 103.17565943 -37.125 116.78515625 C-28.6913639 125.90402529 -17.0812469 131.75116549 -4.7109375 132.6796875 C8.10683452 132.94985131 18.06756516 130.00122684 29.0625 123.4375 C30.41415831 122.12274703 31.75329356 120.79453134 33.0625 119.4375 C33.7225 119.4375 34.3825 119.4375 35.0625 119.4375 C35.289375 118.90125 35.51625 118.365 35.75 117.8125 C37.49632056 114.65249137 39.7027849 112.1698017 42.0625 109.4375 C45.81313565 110.0241753 48.621776 111.08690008 51.92578125 112.94140625 C52.81201172 113.43447266 53.69824219 113.92753906 54.61132812 114.43554688 C55.9793457 115.20995117 55.9793457 115.20995117 57.375 116 C58.30634766 116.52013672 59.23769531 117.04027344 60.19726562 117.57617188 C62.48913795 118.85726974 64.77731613 120.14452105 67.0625 121.4375 C56.96741234 139.68427145 42.47206942 151.2669858 22.63671875 157.61328125 C15.23287396 159.65357179 8.29916381 160.05076268 0.67626953 159.95898438 C-1.43703828 159.93750469 -3.54694926 159.95893236 -5.66015625 159.984375 C-25.5932916 160.02769247 -43.59972458 152.26733491 -57.9375 138.4375 C-75.51763457 119.55052357 -80.16710823 98.62005142 -79.3828125 73.60546875 C-78.49631116 56.30978302 -71.71750131 39.32261121 -59.9375 26.4375 C-59.13699219 25.54546875 -58.33648438 24.6534375 -57.51171875 23.734375 C-41.929844 7.22796065 -22.37574913 -0.0067713 0 0 Z "
       fill="#78A9F1"
       transform="translate(1538.9375,403.5625)"
       id="path10" />
    <path
       d="M0 0 C0.66 0.33 1.32 0.66 2 1 C1.443125 1.52207031 0.88625 2.04414063 0.3125 2.58203125 C-5.56524619 8.25127631 -10.38451292 14.2717014 -15 21 C-15.33 20.34 -15.66 19.68 -16 19 C-11.35426942 11.84467863 -6.21804421 5.83734763 0 0 Z "
       fill="#95ADF4"
       transform="translate(1487,422)"
       id="path43" />
    <path
       d="M0 0 C2.97 0.33 5.94 0.66 9 1 C9 1.33 9 1.66 9 2 C2.34362157 3.23839599 -4.2471936 3.09139136 -11 3 C-11 2.67 -11 2.34 -11 2 C-7.37 2 -3.74 2 0 2 C0 1.34 0 0.68 0 0 Z "
       fill="#1D2538"
       transform="translate(1542,534)"
       id="path52" />
  </g>
  <g
     id="g75">
    <path
       d="M0 0 C10.56 0 21.12 0 32 0 C40.97457681 21.75654985 40.97457681 21.75654985 44.96899414 32.64794922 C46.6883613 37.2901805 48.67841895 41.74668084 50.78515625 46.22265625 C52.65759263 50.50337092 54.11855729 54.91680958 55.59375 59.34765625 C56.70844321 62.24276223 57.9060595 64.86015835 59.31640625 67.609375 C62.39859485 73.65336312 64.91445197 79.89384022 67.4375 86.1875 C67.91614502 87.37480713 68.39479004 88.56211426 68.88793945 89.78540039 C69.83237662 92.12912232 70.77537964 94.47342278 71.71679688 96.81835938 C72.81288178 99.53604934 73.9235491 102.24661882 75.046875 104.953125 C75.33119385 105.6438208 75.6155127 106.3345166 75.90844727 107.04614258 C76.62722819 108.79117418 77.35051821 110.53434667 78.07421875 112.27734375 C79 115 79 115 79 119 C79.66 119 80.32 119 81 119 C81.11859375 118.12512939 81.2371875 117.25025879 81.359375 116.34887695 C81.98458997 113.08055616 82.9182792 110.4572738 84.25 107.41796875 C86.9645013 101.09741969 89.49770907 94.71961314 92 88.3125 C92.97372913 85.82543073 93.94767857 83.33844867 94.921875 80.8515625 C95.17306091 80.20996689 95.42424683 79.56837128 95.68304443 78.90733337 C97.47266629 74.33839392 99.27274952 69.77367252 101.078125 65.2109375 C102.13572852 62.53658154 103.19301186 59.86209924 104.25 57.1875 C104.6456012 56.18657822 104.6456012 56.18657822 105.04919434 55.16543579 C108.45145612 46.55006006 111.80949424 37.91868298 115.125 29.26953125 C115.64184357 27.92171822 115.64184357 27.92171822 116.16912842 26.54667664 C117.86355653 22.12546997 119.55396793 17.70277407 121.23925781 13.27807617 C121.85216429 11.67494862 122.4651176 10.07183897 123.078125 8.46875 C123.35978516 7.72563065 123.64144531 6.98251129 123.93164062 6.21687317 C125.886864 1.113136 125.886864 1.113136 127 0 C129.29151417 -0.08790975 131.58572524 -0.10694038 133.87890625 -0.09765625 C134.90889992 -0.09553383 134.90889992 -0.09553383 135.95970154 -0.09336853 C138.16067801 -0.08775479 140.36155409 -0.07520007 142.5625 -0.0625 C144.05143083 -0.05748676 145.54036324 -0.05292355 147.02929688 -0.04882812 C150.68623075 -0.03778093 154.34310558 -0.02050713 158 0 C154.12453598 10.51097114 150.06143115 20.92947128 145.82476807 31.29989624 C144.16490388 35.36336879 142.51255102 39.42989668 140.859375 43.49609375 C140.36215439 44.71837425 140.36215439 44.71837425 139.85488892 45.96534729 C136.9159832 53.19460407 134.01486569 60.43849003 131.125 67.6875 C124.54322716 84.18292079 117.87318584 100.64243475 111.2011261 117.10150146 C109.15915643 122.13880951 107.11874136 127.17674095 105.08050537 132.21556091 C97.59062785 150.73147297 90.05428447 169.22755692 82.45288086 187.69799805 C78.58107909 197.11103753 74.76510862 206.54371794 71 216 C60.77 216 50.54 216 40 216 C40.70734326 211.75594047 41.19072382 209.09648379 42.79418945 205.34667969 C43.16159744 204.47847595 43.52900543 203.61027222 43.907547 202.71575928 C44.3054393 201.79377747 44.7033316 200.87179565 45.11328125 199.921875 C45.52410446 198.9552594 45.93492767 197.9886438 46.35820007 196.99273682 C47.67017215 193.90916966 48.99102556 190.82950525 50.3125 187.75 C51.62136084 184.68399529 52.92837611 181.6172112 54.23466492 178.55010986 C55.04640325 176.64593301 55.85993716 174.74252018 56.6756134 172.84002686 C57.42439171 171.08997279 58.16864217 169.33797297 58.90786743 167.5838623 C59.66071455 165.80271106 60.42734194 164.02734287 61.20516968 162.25695801 C61.58114288 161.37584351 61.95711609 160.494729 62.34448242 159.58691406 C62.85769295 158.40793549 62.85769295 158.40793549 63.38127136 157.20513916 C64.09369147 154.66608508 63.86518768 153.458256 63 151 C62.68804688 150.10667969 62.37609375 149.21335937 62.0546875 148.29296875 C59.3005052 141.04272065 56.23372238 134.06558 52.84375 127.09375 C51.28289827 123.75748902 49.96556553 120.35392042 48.66015625 116.91015625 C46.20899119 110.45724 43.52547368 104.12686871 40.75552368 97.80508423 C39.60899073 95.18749881 38.46959012 92.56682479 37.32957458 89.94639587 C36.44849024 87.92136602 35.56653401 85.8967173 34.68457031 83.87207031 C27.21396133 66.71077787 19.90992052 49.47877548 12.66073608 32.22299194 C11.85241119 30.29971391 11.04304273 28.37687409 10.23257446 26.45449829 C9.0878849 23.73799089 7.94767373 21.01964483 6.80859375 18.30078125 C6.46845245 17.4955603 6.12831116 16.69033936 5.77786255 15.86071777 C5.45598969 15.08981812 5.13411682 14.31891846 4.80249023 13.5246582 C4.52557846 12.86520706 4.24866669 12.20575592 3.96336365 11.52632141 C2.51573682 7.73006996 1.28480148 3.85440445 0 0 Z "
       fill="#77A9F1"
       transform="translate(1122,407)"
       id="path7" />
    <path
       d="M0 0 C10.56 0 21.12 0 32 0 C31.67 1.32 31.34 2.64 31 4 C31 3.34 31 2.68 31 2 C21.76 2.33 12.52 2.66 3 3 C2.67 3.99 2.34 4.98 2 6 C1.34 4.02 0.68 2.04 0 0 Z "
       fill="#7FABF2"
       transform="translate(1122,407)"
       id="path29" />
    <path
       d="M0 0 C0 3.38023517 -0.87455622 5.83468937 -2 9 C-2.66 9 -3.32 9 -4 9 C-4.33 7.02 -4.66 5.04 -5 3 C-4.01 3 -3.02 3 -2 3 C-2 2.34 -2 1.68 -2 1 C-1.34 0.67 -0.68 0.34 0 0 Z "
       fill="#161C2A"
       transform="translate(1205,517)"
       id="path60" />
  </g>
  <g
     id="g80">
    <path
       d="M0 0 C18.94157298 16.98659412 32.48721964 41.86920658 34.296875 67.52734375 C35.55415489 99.03698174 31.77720412 129.84099536 10.296875 154.52734375 C9.62011719 155.33558594 8.94335938 156.14382813 8.24609375 156.9765625 C-5.41039862 172.81615312 -22.71558601 182.86660279 -42.703125 188.52734375 C-43.63423096 188.79659668 -44.56533691 189.06584961 -45.5246582 189.34326172 C-53.82353211 191.51792591 -61.81212505 191.99284364 -70.33129883 191.91845703 C-72.50341304 191.90243383 -74.67364631 191.91836726 -76.84570312 191.9375 C-103.11245131 191.97552071 -129.3212425 183.74753613 -148.703125 165.52734375 C-149.62351563 164.6971875 -150.54390625 163.86703125 -151.4921875 163.01171875 C-165.38518908 149.92244454 -175.13475752 131.99116231 -179.703125 113.52734375 C-180.0021875 112.37105469 -180.30125 111.21476563 -180.609375 110.0234375 C-186.07194884 84.96135106 -184.09946599 57.96470897 -173.703125 34.52734375 C-173.26226562 33.52316406 -172.82140625 32.51898438 -172.3671875 31.484375 C-168.7409659 23.74108965 -164.07013883 17.15990129 -158.703125 10.52734375 C-157.78080078 9.35558594 -157.78080078 9.35558594 -156.83984375 8.16015625 C-140.96466367 -10.94445018 -115.856413 -23.16882838 -91.39453125 -26.23046875 C-57.84548201 -28.43157039 -25.99278992 -22.47541697 0 0 Z M-126.703125 18.52734375 C-127.44820312 19.18089844 -128.19328125 19.83445312 -128.9609375 20.5078125 C-141.61500184 32.28252661 -150.84311861 50.66381094 -151.92236328 68.06152344 C-152.04471614 72.21947304 -152.09065337 76.36798404 -152.078125 80.52734375 C-152.0769165 81.26411346 -152.07570801 82.00088318 -152.07446289 82.75997925 C-151.96508301 107.2774122 -144.8838316 127.64202755 -127.890625 145.77734375 C-112.23206256 160.7324942 -91.58008427 166.22023231 -70.49609375 165.77734375 C-59.23225547 165.32795862 -48.81020569 162.50586528 -38.703125 157.52734375 C-37.71699219 157.04652344 -36.73085937 156.56570313 -35.71484375 156.0703125 C-23.32055885 149.46324234 -14.55337743 139.66679913 -7.703125 127.52734375 C-7.23261719 126.76808594 -6.76210938 126.00882812 -6.27734375 125.2265625 C-3.27420237 120.23904452 -1.63288873 115.37286635 -0.28125 109.71484375 C0.296875 107.52734375 0.296875 107.52734375 1.296875 106.52734375 C4.80920166 91.83710159 4.54095837 75.2101026 1.296875 60.52734375 C1.06355469 59.42519531 0.83023438 58.32304687 0.58984375 57.1875 C-2.90941162 42.98276016 -10.24290193 30.7029349 -20.703125 20.52734375 C-21.46109375 19.74875 -22.2190625 18.97015625 -23 18.16796875 C-29.50393838 11.83406798 -36.50072112 8.1541898 -44.703125 4.52734375 C-45.78207031 4.01880859 -45.78207031 4.01880859 -46.8828125 3.5 C-72.43300569 -7.52057689 -106.61186302 0.27322051 -126.703125 18.52734375 Z "
       fill="#77A8F1"
       transform="translate(284.703125,371.47265625)"
       id="path5" />
    <path
       d="M0 0 C2.76903152 2.51421267 4.63292444 5.34658677 6.625 8.5 C7.23601562 9.4590625 7.84703125 10.418125 8.4765625 11.40625 C10 14 10 14 11 17 C11.99 17.33 12.98 17.66 14 18 C15.5078125 19.56640625 15.5078125 19.56640625 17.125 21.5625 C24.58859602 30.24684982 32.609751 35.75925848 42.62109375 41.1171875 C46 43 46 43 48 45 C35.18657056 43.2070761 24.68953001 32.83332838 16 24 C15.15308594 23.15179687 14.30617187 22.30359375 13.43359375 21.4296875 C0 7.29145516 0 7.29145516 0 0 Z "
       fill="#8DA2EB"
       transform="translate(115,508)"
       id="path26" />
    <path
       d="M0 0 C3.38230658 1.52673561 6.10259949 3.50252978 9 5.8125 C9.845625 6.47894531 10.69125 7.14539063 11.5625 7.83203125 C14.04170743 10.03709555 16.00589632 12.35504303 18 15 C17.67 15.66 17.34 16.32 17 17 C11.33333333 11.33333333 5.66666667 5.66666667 0 0 Z "
       fill="#8399DF"
       transform="translate(253,382)"
       id="path42" />
    <path
       d="M0 0 C3.68579122 3.22914452 5.68356245 6.88653531 7.75 11.25 C8.06582031 11.8996875 8.38164062 12.549375 8.70703125 13.21875 C9.47873965 14.80893701 10.24040275 16.40399229 11 18 C10.34 18.99 9.68 19.98 9 21 C8.76925781 20.3709375 8.53851563 19.741875 8.30078125 19.09375 C6.31487957 13.88173928 4.13364248 9.28016491 0.953125 4.69140625 C0 3 0 3 0 0 Z "
       fill="#8099E0"
       transform="translate(273,401)"
       id="path44" />
    <path
       d="M0 0 C0.66 0 1.32 0 2 0 C0.67326453 3.76129505 -0.97465483 6.48607315 -3.5 9.5625 C-5.72418767 12.28147518 -7.54652152 14.79507995 -9 18 C-9.66 18 -10.32 18 -11 18 C-10.41565743 14.11636938 -8.55890801 11.96138093 -6.0625 9 C-3.6257856 6.09893894 -1.53635291 3.47489245 0 0 Z "
       fill="#889EE3"
       transform="translate(276,499)"
       id="path46" />
    <path
       d="M0 0 C0.66 0.33 1.32 0.66 2 1 C-1.0657052 5.65987191 -3.58657319 6.85485202 -9 8 C-6.14723863 5.06799526 -3.34920216 2.35684596 0 0 Z "
       fill="#8AA4F1"
       transform="translate(260,519)"
       id="path59" />
    <path
       d="M0 0 C0.66 0.99 1.32 1.98 2 3 C0.15083921 7.06815373 -1.66442368 10.0094833 -5 13 C-3.58192622 8.52761347 -1.88695626 4.28853694 0 0 Z "
       fill="#0B101C"
       transform="translate(311,497)"
       id="path61" />
    <path
       d="M0 0 C0.33 0 0.66 0 1 0 C1.34833144 4.87664009 0.41685712 7.77050005 -2 12 C-3.12377697 8.69564916 -2.89554742 6.9493138 -1.5625 3.75 C-1.27503906 3.04359375 -0.98757813 2.3371875 -0.69140625 1.609375 C-0.46324219 1.07828125 -0.23507812 0.5471875 0 0 Z "
       fill="#8CA6ED"
       transform="translate(314,483)"
       id="path62" />
    <path
       d="M0 0 C0.99 0 1.98 0 3 0 C3.33 0.66 3.66 1.32 4 2 C3.67 2.99 3.34 3.98 3 5 C2.34 5 1.68 5 1 5 C0.34 6.32 -0.32 7.64 -1 9 C-2.60031344 5.79937313 -1.03173691 3.27728194 0 0 Z "
       fill="#6C8CCD"
       transform="translate(284,479)"
       id="path67" />
  </g>
  <g
     id="g79">
    <path
       d="M0 0 C1.00804687 0.44601562 2.01609375 0.89203125 3.0546875 1.3515625 C18.60796102 9.06357347 32.32308571 24.56682707 38 41 C38.49092955 43.99370764 38.8009874 46.97363605 39 50 C39.66 50 40.32 50 41 50 C44.73086909 77.8815842 43.96956955 105.10378658 26.125 128.5 C13.5523239 142.8757343 -1.8565483 152.43635878 -21 155 C-40.85780568 156.06784477 -58.44849922 152.69690098 -73.6875 139.3125 C-76.82480253 136.34858898 -79.26564165 133.41794793 -82 130 C-82.33 157.72 -82.66 185.44 -83 214 C-92.57 214 -102.14 214 -112 214 C-112 142.72 -112 71.44 -112 -2 C-102.43 -2 -92.86 -2 -83 -2 C-82.67 4.93 -82.34 11.86 -82 19 C-80.4840625 17.205625 -80.4840625 17.205625 -78.9375 15.375 C-73.22018294 8.93454402 -67.79344401 4.6731841 -60.125 0.75 C-59.46508057 0.40839844 -58.80516113 0.06679688 -58.12524414 -0.28515625 C-40.97941598 -8.72255925 -17.1953515 -7.6830294 0 0 Z "
       fill="#77AAF2"
       transform="translate(457,409)"
       id="path3" />
    <path
       d="M0 0 C9.8767199 8.25049261 16.36141888 19.42760293 18.1484375 32.22265625 C19.65931958 50.64255906 17.15649212 67.31577472 5.4609375 82.09765625 C-3.25072746 91.44767597 -15.04118748 96.48835861 -27.64453125 97.296875 C-40.90415634 97.72365539 -51.29261504 94.56369263 -61.5390625 86.09765625 C-62.16296875 85.62070312 -62.786875 85.14375 -63.4296875 84.65234375 C-67.79643809 80.89536464 -70.27018047 76.28433858 -72.8515625 71.22265625 C-73.18945801 70.56273682 -73.52735352 69.90281738 -73.87548828 69.22290039 C-77.96914403 60.76509671 -78.90830522 52.60798557 -78.8515625 43.28515625 C-78.84592285 42.31537842 -78.8402832 41.34560059 -78.83447266 40.34643555 C-78.600332 26.51706811 -74.82510093 14.12191343 -65.30078125 3.72265625 C-46.91080852 -13.24015673 -20.04612741 -15.01917546 0 0 Z "
       fill="#020304"
       transform="translate(452.5390625,439.90234375)"
       id="path11" />
    <path
       d="M0 0 C9.57 0 19.14 0 29 0 C29.33 6.93 29.66 13.86 30 21 C31.03125 19.783125 32.0625 18.56625 33.125 17.3125 C36.18609843 13.80252359 39.33361083 10.86157204 43 8 C43.66 8.33 44.32 8.66 45 9 C43.87851562 9.99580078 43.87851562 9.99580078 42.734375 11.01171875 C41.73940016 11.90344149 40.74461877 12.79538011 39.75 13.6875 C38.77546875 14.55761719 37.8009375 15.42773438 36.796875 16.32421875 C34.26347429 18.74793311 32.11227089 21.2087849 30 24 C29.01 23.67 28.02 23.34 27 23 C27 16.07 27 9.14 27 2 C18.75 2 10.5 2 2 2 C2 72.29 2 142.58 2 215 C10.25 215 18.5 215 27 215 C27 187.28 27 159.56 27 131 C27.33 131 27.66 131 28 131 C28 159.05 28 187.1 28 216 C18.76 216 9.52 216 0 216 C0 144.72 0 73.44 0 0 Z "
       fill="#8AAEF7"
       transform="translate(345,407)"
       id="path22" />
    <path
       d="M0 0 C0.639375 0.66 1.27875 1.32 1.9375 2 C2.95503139 3.00335964 3.97636949 4.00286346 5 5 C5.62003906 5.61617187 6.24007813 6.23234375 6.87890625 6.8671875 C12.99460314 12.65626338 19.50029635 16.29071844 27 20 C24 21 24 21 21.65234375 20.1015625 C14.53442578 16.23023446 8.78041027 11.66178245 3 6 C2.11828125 5.21689453 2.11828125 5.21689453 1.21875 4.41796875 C0 3 0 3 0 0 Z "
       fill="#8D9FEA"
       transform="translate(376,538)"
       id="path34" />
    <path
       d="M0 0 C8.25 0.33 16.5 0.66 25 1 C25 1.66 25 2.32 25 3 C22.33305052 3.05455124 19.66724502 3.09393392 17 3.125 C15.88431641 3.15013672 15.88431641 3.15013672 14.74609375 3.17578125 C9.49451557 3.22144715 5.0483054 2.45712451 0 1 C0 0.67 0 0.34 0 0 Z "
       fill="#798BD3"
       transform="translate(411,561)"
       id="path36" />
    <path
       d="M0 0 C0.66 0.99 1.32 1.98 2 3 C0.35 5.31 -1.3 7.62 -3 10 C-3.66 9.67 -4.32 9.34 -5 9 C-3.35 6.03 -1.7 3.06 0 0 Z "
       fill="#192030"
       transform="translate(490,524)"
       id="path70" />
  </g>
  <g
     id="g74">
    <path
       d="M0 0 C1.10794922 -0.01611328 2.21589844 -0.03222656 3.35742188 -0.04882812 C18.71117078 -0.05780168 33.03103156 4.34676171 44.28515625 15.1328125 C52.84673953 24.33775175 59.44742156 37.1212144 59.43275452 49.96954346 C59.43481651 51.36612686 59.43481651 51.36612686 59.43692017 52.79092407 C59.43332489 53.80512421 59.42972961 54.81932434 59.42602539 55.86425781 C59.42617142 56.93773468 59.42631744 58.01121155 59.4264679 59.11721802 C59.42577103 62.66670754 59.41798914 66.21614464 59.41015625 69.765625 C59.40829127 72.22613496 59.40686774 74.6866453 59.40586853 77.14715576 C59.40204967 83.62444076 59.39222472 90.10170335 59.38116455 96.57897949 C59.3709369 103.18806658 59.366368 109.79715728 59.36132812 116.40625 C59.35060192 129.37501143 59.33301019 142.34375035 59.3125 155.3125 C50.0725 155.3125 40.8325 155.3125 31.3125 155.3125 C31.3031543 152.41186768 31.29380859 149.51123535 31.28417969 146.52270508 C31.25029228 136.89941556 31.19467825 127.27633783 31.12859726 117.65321827 C31.08922176 111.8232447 31.05698465 105.99341994 31.04150391 100.16333008 C31.0262719 94.52860284 30.99171062 88.89428498 30.94419098 83.25974083 C30.92944447 81.11859397 30.92146289 78.97738865 30.92061615 76.83619118 C30.98244238 54.45067527 30.98244238 54.45067527 20.3125 35.3125 C12.327217 29.27801904 4.88357681 26.96874275 -5 27.0625 C-5.80373047 27.05476563 -6.60746094 27.04703125 -7.43554688 27.0390625 C-19.01483507 27.07632489 -27.80142786 30.13678057 -36.54296875 37.9765625 C-45.58966038 47.79071126 -47.97244422 59.95570508 -48.00634766 72.89306641 C-48.01639328 73.79185516 -48.0264389 74.69064392 -48.03678894 75.6166687 C-48.06735954 78.54912755 -48.0845826 81.48149626 -48.1015625 84.4140625 C-48.12029522 86.46244061 -48.13987017 88.51081118 -48.1602478 90.55917358 C-48.21135279 95.92168712 -48.25109372 101.28422561 -48.28839111 106.64685059 C-48.32856708 112.13051416 -48.37959712 117.61407586 -48.4296875 123.09765625 C-48.5261904 133.83587269 -48.60967198 144.57413196 -48.6875 155.3125 C-57.9275 155.3125 -67.1675 155.3125 -76.6875 155.3125 C-76.6875 105.1525 -76.6875 54.9925 -76.6875 3.3125 C-67.4475 3.3125 -58.2075 3.3125 -48.6875 3.3125 C-48.3575 9.9125 -48.0275 16.5125 -47.6875 23.3125 C-45.7075 20.6725 -43.7275 18.0325 -41.6875 15.3125 C-29.54130521 4.33175719 -16.02004642 -0.04579773 0 0 Z "
       fill="#77A9F2"
       transform="translate(1376.6875,403.6875)"
       id="path9" />
    <path
       d="M0 0 C0.33 0.99 0.66 1.98 1 3 C1.66 3 2.32 3 3 3 C3 39.3 3 75.6 3 113 C-6.24 113 -15.48 113 -25 113 C-25.33 78.68 -25.66 44.36 -26 9 C-21.95558004 15.06662994 -22.85530013 23.27754854 -22.88647461 30.37524414 C-22.88632858 31.2641333 -22.88618256 32.15302246 -22.8860321 33.06884766 C-22.88672256 35.97430966 -22.89447392 38.8797056 -22.90234375 41.78515625 C-22.90421101 43.81253525 -22.90563346 45.8399147 -22.90663147 47.86729431 C-22.91043236 53.1789171 -22.92024169 58.49051213 -22.93133545 63.80212402 C-22.941602 69.23201116 -22.94614029 74.66190281 -22.95117188 80.09179688 C-22.96186632 90.72787868 -22.97944324 101.36393268 -23 112 C-15.08 112 -7.16 112 1 112 C0.67 75.04 0.34 38.08 0 0 Z "
       fill="#8AA4EE"
       transform="translate(1433,446)"
       id="path23" />
    <path
       d="M0 0 C0.33 0 0.66 0 1 0 C1.33 5.61 1.66 11.22 2 17 C2.33 17 2.66 17 3 17 C3.04643825 25.74518602 3.08192743 34.49032928 3.10362434 43.23561192 C3.11404027 47.29684889 3.12815926 51.3580012 3.15087891 55.41918945 C3.17268569 59.34196233 3.18458509 63.264654 3.18975449 67.18748283 C3.19343622 68.68052383 3.20062562 70.17356062 3.21146011 71.66656685 C3.22607948 73.76551884 3.22797363 75.86413967 3.22705078 77.96313477 C3.231492 79.15560318 3.23593323 80.34807159 3.24050903 81.57667542 C2.97469216 85.36022328 2.15920774 88.40153253 1 92 C0.67 92 0.34 92 0 92 C0 61.64 0 31.28 0 0 Z "
       fill="#0E151E"
       transform="translate(1328,467)"
       id="path24" />
    <path
       d="M0 0 C8.91 0 17.82 0 27 0 C27.04125 3.25875 27.0825 6.5175 27.125 9.875 C27.14320801 10.90093262 27.16141602 11.92686523 27.18017578 12.98388672 C27.1851709 13.79100098 27.19016602 14.59811523 27.1953125 15.4296875 C27.20578613 16.25710449 27.21625977 17.08452148 27.22705078 17.93701172 C27 20 27 20 25 22 C25 15.4 25 8.8 25 2 C16.75 2 8.5 2 0 2 C0 1.34 0 0.68 0 0 Z "
       fill="#88ADF2"
       transform="translate(1301,407)"
       id="path27" />
    <path
       d="M0 0 C0.99 0.33 1.98 0.66 3 1 C2.97679687 1.67546875 2.95359375 2.3509375 2.9296875 3.046875 C2.91164063 3.93890625 2.89359375 4.8309375 2.875 5.75 C2.84019531 7.07257813 2.84019531 7.07257813 2.8046875 8.421875 C3.00860498 11.1135858 3.63448279 12.69904974 5 15 C3.69593116 17.01920337 2.36176581 19.01924973 1 21 C0.67 21 0.34 21 0 21 C0 14.07 0 7.14 0 0 Z "
       fill="#0C1118"
       transform="translate(1328,407)"
       id="path32" />
    <path
       d="M0 0 C0.66 0 1.32 0 2 0 C4.42857143 7.42857143 4.42857143 7.42857143 3 11 C2.34 10.67 1.68 10.34 1 10 C0.5859375 7.71484375 0.5859375 7.71484375 0.375 4.9375 C0.30023437 4.01839844 0.22546875 3.09929687 0.1484375 2.15234375 C0.09945313 1.44207031 0.05046875 0.73179687 0 0 Z "
       fill="#7A93D1"
       transform="translate(1431,438)"
       id="path57" />
    <path
       d="M0 0 C3.36720387 1.39332574 4.9859524 2.9789286 7 6 C4 6 4 6 1.8125 4.125 C0 2 0 2 0 0 Z "
       fill="#7A96DA"
       transform="translate(1416,416)"
       id="path68" />
    <path
       d="M0 0 C0.33 0 0.66 0 1 0 C0.67 3.3 0.34 6.6 0 10 C-2 7 -2 7 -1.6875 4.4375 C-1 2 -1 2 0 0 Z "
       fill="#809ADD"
       transform="translate(1329,457)"
       id="path71" />
  </g>
  <g
     id="g77">
    <path
       d="M0 0 C3.32328018 2.15035776 5.8248035 4.41381432 7.9375 7.8125 C7.9375 8.4725 7.9375 9.1325 7.9375 9.8125 C72.9475 9.8125 137.9575 9.8125 204.9375 9.8125 C205.5975 8.4925 206.2575 7.1725 206.9375 5.8125 C208.77734375 3.92578125 208.77734375 3.92578125 210.875 2.125 C211.90947266 1.22201172 211.90947266 1.22201172 212.96484375 0.30078125 C218.05579658 -3.54011584 224.88342242 -2.68961544 230.9375 -2.1875 C237.13547658 -0.52804175 241.51882822 3.47082534 244.9375 8.8125 C247.69595415 15.83401965 247.74572894 22.05977936 244.83203125 28.96484375 C241.66996414 35.49610027 236.56933672 38.34572239 229.9375 40.8125 C228.81085938 40.78800781 227.68421875 40.76351562 226.5234375 40.73828125 C222.20746559 42.03119223 221.87823497 42.89481681 219.68359375 46.68359375 C218.55559589 48.85955002 217.45445091 51.04955673 216.375 53.25 C215.46101433 55.03085741 214.54698957 56.81169623 213.63049316 58.59126282 C212.68248449 60.43926667 211.74527727 62.29247239 210.80908203 64.14648438 C207.92688979 69.82666537 204.85719874 75.40585772 201.8125 81 C196.89817574 90.10108032 192.08475395 99.25045903 187.32446289 108.43286133 C184.04951211 114.73209298 180.6780401 120.97048705 177.25 127.1875 C171.7434196 137.18508033 166.52857783 147.32283919 161.32711792 157.48101807 C156.48115488 166.93988677 151.53470047 176.32562478 146.39453125 185.62890625 C142.27236845 193.12068442 138.34529184 200.70769576 134.4375 208.3125 C129.91191394 217.11808434 125.32513073 225.88187338 120.5625 234.5625 C120.08006836 235.44421875 119.59763672 236.3259375 119.10058594 237.234375 C117.2599821 240.59426764 115.41684408 243.95245065 113.55175781 247.29882812 C112.25290418 249.63096704 110.96910031 251.97084853 109.6875 254.3125 C109.30416504 254.98893555 108.92083008 255.66537109 108.52587891 256.36230469 C106.1422237 260.75413073 105.9375 262.50393156 105.9375 267.8125 C133.9875 267.8125 162.0375 267.8125 190.9375 267.8125 C191.2675 266.1625 191.5975 264.5125 191.9375 262.8125 C194.87261073 258.11632284 198.78150601 254.79996056 203.9375 252.8125 C210.67774517 251.83638459 217.25708748 251.92862914 223.22265625 255.47265625 C228.10992556 259.2911833 232.49878146 264.24153512 233.2734375 270.546875 C233.35862148 277.12307791 233.16992341 282.53662594 228.9375 287.8125 C222.53835837 293.8125 222.53835837 293.8125 217.9375 293.8125 C217.9375 300.7425 217.9375 307.6725 217.9375 314.8125 C219.5875 315.1425 221.2375 315.4725 222.9375 315.8125 C228.24876681 319.6366121 231.60675627 323.36707165 232.9375 329.8125 C233.66286958 336.48590017 233.43695471 341.55935864 229.43359375 347.09375 C225.38780795 351.74165014 221.02169912 355.4516639 214.765625 356.18359375 C207.13633204 356.32518543 201.67566483 356.13585774 195.9375 350.8125 C190.9375 345.78792998 190.9375 345.78792998 190.9375 342.8125 C164.66895383 342.80295283 138.40063179 342.82748203 112.13216019 342.8927784 C99.93571745 342.92229763 87.73944935 342.94059016 75.54296875 342.93261719 C64.91470393 342.92569768 54.28670924 342.93967546 43.65851092 342.97893608 C38.02887256 342.99899718 32.39965867 343.00846552 26.76999664 342.99292374 C21.47403268 342.97863299 16.17888134 342.9922254 10.88302231 343.02745247 C8.936748 343.03543857 6.9904008 343.03312905 5.04415512 343.01989174 C2.39087126 343.00336783 -0.25966825 343.02350816 -2.91278076 343.05300903 C-3.68710095 343.03942293 -4.46142114 343.02583683 -5.25920558 343.01183903 C-7.68408238 342.99927495 -7.68408238 342.99927495 -11.0625 343.8125 C-13.52838854 346.63026852 -13.52838854 346.63026852 -15.0625 349.8125 C-19.79110329 354.62024309 -24.42597327 356.24869675 -31.125 356.5 C-39.06641138 356.13202512 -43.65762488 353.64178003 -48.9375 347.875 C-53.10362968 341.87087193 -53.95359414 335.98695025 -53.0625 328.8125 C-50.64210897 322.86237205 -46.57499075 318.17661822 -41.0625 314.8125 C-39.44797579 314.50099549 -37.83338506 314.18983569 -36.21875 313.87890625 C-31.44672446 312.52637887 -29.85325958 310.68150561 -27.4453125 306.38671875 C-26.32628956 304.10709095 -25.24203205 301.81016827 -24.1875 299.5 C-23.595168 298.27124404 -22.998917 297.0443702 -22.39892578 295.81933594 C-21.18452077 293.33667448 -19.98373443 290.84812397 -18.79101562 288.35498047 C-16.33885434 283.32943524 -13.65756084 278.44667391 -10.9375 273.5625 C-6.34906401 265.23486054 -1.92229689 256.83283051 2.45117188 248.390625 C5.73691032 242.06568476 9.11799766 235.80213129 12.5625 229.5625 C18.29987245 219.15194516 23.70966253 208.58143454 29.12036133 197.99902344 C34.09808561 188.26838197 39.16654307 178.60729078 44.45654297 169.04174805 C48.80401759 161.14371111 52.94086528 153.14238055 57.0625 145.125 C57.40644806 144.45595642 57.75039612 143.78691284 58.10476685 143.09759521 C59.45393916 140.47264671 60.80296741 137.8476243 62.15162659 135.22241211 C64.90691084 129.86285742 67.69168501 124.51942876 70.5 119.1875 C71.08491211 118.07314575 71.08491211 118.07314575 71.68164062 116.9362793 C73.44703686 113.58485659 75.23939751 110.25405745 77.09765625 106.953125 C77.43144287 106.3545166 77.76522949 105.7559082 78.10913086 105.13916016 C78.98279961 103.57975651 79.86965873 102.02776194 80.7578125 100.4765625 C82.01637611 97.6343758 82.03415451 95.87151915 81.9375 92.8125 C80.24113403 93.01613159 80.24113403 93.01613159 78.51049805 93.22387695 C40.60388101 97.7707891 40.60388101 97.7707891 24 99.625 C22.90196045 99.7485083 21.8039209 99.8720166 20.67260742 99.99926758 C19.67849854 100.10907959 18.68438965 100.2188916 17.66015625 100.33203125 C16.81203369 100.42589111 15.96391113 100.51975098 15.09008789 100.61645508 C12.9375 100.8125 12.9375 100.8125 9.9375 100.8125 C9.89625 101.4725 9.855 102.1325 9.8125 102.8125 C8.14554234 108.5277834 4.44796447 113.21741969 -0.6875 116.25 C-6.60487024 118.98952326 -12.85402106 120.14913124 -19.21484375 118.12890625 C-25.17449412 115.37213899 -30.6489942 111.09858555 -33.0625 104.8125 C-33.67738262 98.9425159 -34.31778515 92.19410684 -31.5 86.8125 C-28.71077579 83.37960867 -25.82254343 80.19415164 -22.0625 77.8125 C-21.0725 77.8125 -20.0825 77.8125 -19.0625 77.8125 C-19.0625 65.2725 -19.0625 52.7325 -19.0625 39.8125 C-20.7125 39.1525 -22.3625 38.4925 -24.0625 37.8125 C-29.11620417 34.65393489 -32.02216593 30.33735521 -34.0625 24.8125 C-35.28168458 16.58585263 -33.59046909 11.42388441 -28.875 4.6875 C-21.57996166 -3.48982911 -9.66775587 -5.04127204 0 0 Z "
       fill="#78A8F1"
       transform="translate(874.0625,297.1875)"
       id="path2" />
    <path
       d="M0 0 C0.495 0.99 0.495 0.99 1 2 C-0.16479492 4.52416992 -0.16479492 4.52416992 -1.98046875 7.73046875 C-2.30439102 8.30875427 -2.62831329 8.88703979 -2.96205139 9.48284912 C-3.66334995 10.73345161 -4.36816372 11.98208785 -5.0760498 13.22897339 C-6.95157042 16.53389614 -8.80088761 19.85343006 -10.65234375 23.171875 C-11.02573883 23.83972519 -11.39913391 24.50757538 -11.78384399 25.19566345 C-15.0503215 31.05276622 -18.17713107 36.97656114 -21.25 42.9375 C-24.98964123 50.17957341 -28.81552079 57.36193715 -32.75 64.5 C-37.69427737 73.48570102 -42.4353215 82.56733712 -47.125 91.6875 C-47.47106293 92.36044098 -47.81712585 93.03338196 -48.17367554 93.72671509 C-49.53292139 96.3703987 -50.89189959 99.01421967 -52.25047302 101.6582489 C-59.33433114 115.43823668 -66.64301549 129.09746079 -73.97412109 142.74707031 C-77.4442136 149.21084633 -80.89607878 155.68367446 -84.3203125 162.171875 C-92.29198593 177.26785064 -100.36891138 192.26609586 -109 207 C-109.33 207 -109.66 207 -110 207 C-110.02477942 201.12842107 -110.04289766 195.25687282 -110.05493164 189.38525391 C-110.05995022 187.38915476 -110.06676651 185.39305927 -110.07543945 183.39697266 C-110.08761356 180.52245174 -110.09325316 177.64797956 -110.09765625 174.7734375 C-110.10281754 173.88570648 -110.10797882 172.99797546 -110.11329651 172.08334351 C-110.11369692 167.62806425 -110.05673945 163.35754675 -109 159 C-107.29296875 157.6015625 -107.29296875 157.6015625 -105.1875 156.625 C-100.52229048 154.00343702 -98.51114995 151.1131992 -97 146 C-96.44429013 140.9986112 -96.82813766 138.27593068 -98.875 133.75 C-99.87446064 130.88681083 -100.13670019 129.4713542 -99.28515625 126.53515625 C-98.00080162 123.94038761 -96.6110678 121.43765828 -95.13525391 118.94726562 C-93.86901357 116.77532305 -92.67184151 114.57326453 -91.48046875 112.359375 C-85.42802936 101.11563296 -79.21884021 89.95674072 -73.04321289 78.78033447 C-68.20240244 70.01804954 -63.39327688 61.23953793 -58.625 52.4375 C-58.08367432 51.4386377 -57.54234863 50.43977539 -56.98461914 49.41064453 C-54.36829319 44.64286102 -54.36829319 44.64286102 -51.99462891 39.75415039 C-51 38 -51 38 -48.609375 37.3125 C-47.19398437 37.1578125 -47.19398437 37.1578125 -45.75 37 C-40.88621784 36.24976955 -37.70886106 35.43748099 -34 32 C-31.26292069 28.02682036 -29.97422772 25.05558946 -30.09375 20.16015625 C-29.75291248 17.09653628 -29.25194787 16.21401311 -26.86450195 14.18603516 C-23.90689889 12.37311816 -20.90499935 10.75909803 -17.8125 9.1875 C-16.77029297 8.62869141 -15.72808594 8.06988281 -14.65429688 7.49414062 C-9.81277641 4.91179118 -4.92302023 2.4232483 0 0 Z "
       fill="#040507"
       transform="translate(1080,333)"
       id="path12" />
    <path
       d="M0 0 C1.19500004 3.58500013 0.87799941 5.9283169 0.51171875 9.6875 C0.41682915 10.67411621 0.41682915 10.67411621 0.32002258 11.68066406 C0.18428303 13.07631209 0.04538157 14.47165566 -0.09643555 15.86669922 C-0.30883411 17.96380507 -0.50973867 20.0617648 -0.70898438 22.16015625 C-1.09214527 26.1130383 -1.5342581 30.05594873 -2 34 C-2.1249585 35.10037598 -2.24991699 36.20075195 -2.37866211 37.33447266 C-3.37825331 44.39638314 -3.37825331 44.39638314 -6.27734375 47.2109375 C-7.15519531 47.59507812 -8.03304687 47.97921875 -8.9375 48.375 C-13.14390927 50.29545195 -15.10488105 51.69458413 -17 56 C-17.47195283 59.17896358 -17.47195283 59.17896358 -17.375 62.5 C-17.38273438 63.6034375 -17.39046875 64.706875 -17.3984375 65.84375 C-17.21313098 69.05035129 -17.21313098 69.05035129 -15.4140625 71.59375 C-14 74 -14 74 -14.04296875 76.28515625 C-15.42791663 80.21388594 -17.33074887 83.77972555 -19.3125 87.4375 C-19.7569043 88.26950928 -20.20130859 89.10151855 -20.65917969 89.95874023 C-24.98893968 98.04211068 -29.3939985 106.08520298 -33.796875 114.12890625 C-37.2270059 120.40366554 -40.61476893 126.70093441 -44 133 C-52.74838438 149.2702925 -61.59135505 165.48793269 -70.52416992 181.65771484 C-70.95189697 182.43324707 -71.37962402 183.2087793 -71.8203125 184.0078125 C-72.19430176 184.68473145 -72.56829102 185.36165039 -72.95361328 186.05908203 C-74.04453109 187.97246984 -74.04453109 187.97246984 -74.74560547 190.03149414 C-76.64051034 193.00514498 -79.11935139 193.93107312 -82.25 195.48828125 C-82.86391602 195.79573776 -83.47783203 196.10319427 -84.11035156 196.41996765 C-85.40534362 197.06512856 -86.70328298 197.70440286 -88.00390625 198.33813477 C-90.00006707 199.31253274 -91.98464626 200.3079587 -93.96875 201.30664062 C-101.07144234 204.82656045 -101.07144234 204.82656045 -104 206 C-104.66 205.67 -105.32 205.34 -106 205 C-105.45704609 200.61082022 -104.40060088 197.39620198 -102.26171875 193.53515625 C-101.69501465 192.4997168 -101.12831055 191.46427734 -100.54443359 190.39746094 C-99.93164551 189.29692383 -99.31885742 188.19638672 -98.6875 187.0625 C-97.72661344 185.30958767 -96.76574784 183.55666284 -95.80688477 181.80264282 C-95.15497217 180.61022481 -94.5021341 179.41831233 -93.84838867 178.22689819 C-90.77160684 172.61165577 -87.81397027 166.93820271 -84.875 161.25 C-80.9720723 153.71519024 -76.96826976 146.24553252 -72.875 138.8125 C-69.09578219 131.94539956 -65.46367194 125.03150403 -62 118 C-58.6994637 111.30093048 -55.24390832 104.71980978 -51.625 98.1875 C-44.92847529 86.07740864 -38.66411708 73.74884684 -32.38134766 61.4206543 C-27.84374062 52.52067679 -23.25779006 43.64982802 -18.59275818 34.81590271 C-16.03907756 29.97931236 -13.50419239 25.13382225 -10.99609375 20.2734375 C-10.40119141 19.12101562 -9.80628906 17.96859375 -9.19335938 16.78125 C-8.29760534 15.04354696 -7.40190742 13.30581452 -6.50756836 11.56738281 C-5.60957492 9.82270984 -4.70913133 8.07929864 -3.80859375 6.3359375 C-3.29095459 5.33095215 -2.77331543 4.3259668 -2.23999023 3.29052734 C-1 1 -1 1 0 0 Z "
       fill="#050609"
       transform="translate(965,412)"
       id="path13" />
    <path
       d="M0 0 C2.57086051 0.36726579 4.09496592 1.0638564 6.265625 2.5234375 C9.43269032 4.23365277 11.42399443 4.40236739 15 4.375 C16.010625 4.38273438 17.02125 4.39046875 18.0625 4.3984375 C21.07175707 4.19834004 21.07175707 4.19834004 23.5 2.4140625 C26 1 26 1 28.76953125 1.06640625 C32.97482829 2.28172184 36.7606773 4.01932668 40.6875 5.9375 C41.52490723 6.34009033 42.36231445 6.74268066 43.22509766 7.1574707 C49.60871503 10.25362676 55.8795613 13.54156904 62.12915039 16.89819336 C67.2332091 19.6139181 72.39483742 22.1810313 77.609375 24.67578125 C78.26982819 24.99197922 78.93028137 25.30817719 79.61074829 25.63395691 C82.92445227 27.21749352 86.24257749 28.79104253 89.56591797 30.35424805 C90.78618606 30.93396996 92.0064033 31.51379894 93.2265625 32.09375 C94.31533691 32.60615234 95.40411133 33.11855469 96.52587891 33.64648438 C99 35 99 35 100 37 C44.23 37 -11.54 37 -69 37 C-65.76183854 33.76183854 -62.59688694 32.26610374 -58.5 30.4375 C-51.5358554 27.24226507 -44.73468182 23.82650914 -37.97314453 20.22460938 C-32.79422828 17.46837614 -27.59771468 14.74984967 -22.3828125 12.0625 C-21.39287292 11.55215965 -21.39287292 11.55215965 -20.38293457 11.0315094 C-17.71718217 9.65779484 -15.05111632 8.28470635 -12.38342285 6.9147644 C-10.51259776 5.95389387 -8.64293823 4.99078777 -6.7734375 4.02734375 C-5.68466309 3.46781006 -4.59588867 2.90827637 -3.47412109 2.33178711 C-1.12359303 1.21941887 -1.12359303 1.21941887 0 0 Z "
       fill="#040508"
       transform="translate(948,587)"
       id="path14" />
    <path
       d="M0 0 C59.4 0 118.8 0 180 0 C177.26820284 2.73179716 175.27541249 4.09518978 171.9296875 5.8828125 C170.46208984 6.67365234 170.46208984 6.67365234 168.96484375 7.48046875 C167.43537109 8.29451172 167.43537109 8.29451172 165.875 9.125 C163.85078669 10.20949069 161.82730773 11.29535354 159.8046875 12.3828125 C158.90733887 12.86121582 158.00999023 13.33961914 157.08544922 13.83251953 C155.07599719 14.83347263 155.07599719 14.83347263 154 16 C151.34477258 16.21528871 149.56463052 16.30987315 147.19921875 15.01171875 C142.77823591 12.97790959 137.74819287 13.47877936 133 14 C129.58967849 15.67524565 127.6576111 16.71801446 125.91796875 20.109375 C123.33212247 22.65835585 121.11336607 22.52064536 117.59301758 22.5559082 C116.69607178 22.5374585 115.79912598 22.51900879 114.875 22.5 C113.44353638 22.48296021 113.44353638 22.48296021 111.9831543 22.46557617 C74.18444793 21.50537309 35.62737186 13.31669313 0 1 C0 0.67 0 0.34 0 0 Z "
       fill="#060709"
       transform="translate(893,322)"
       id="path16" />
    <path
       d="M0 0 C24.42 0 48.84 0 74 0 C75.32 2.31 76.64 4.62 78 7 C80.03342458 8.45198967 80.03342458 8.45198967 82.1953125 9.27734375 C84.80726559 10.76165615 85.80457737 11.39635263 86.74121094 14.28955078 C87.00604999 17.08787939 86.99415032 19.75478029 86.875 22.5625 C86.88917969 23.50802734 86.90335938 24.45355469 86.91796875 25.42773438 C86.8687538 28.10616359 86.71103054 30.41666511 86 33 C83.1953125 35.52734375 83.1953125 35.52734375 80 37 C79.12770752 37.63479279 79.12770752 37.63479279 78.23779297 38.28240967 C75.27602365 39.23215661 73.68868687 38.31740517 70.97753906 36.9864502 C70.32495117 36.64577515 69.67236328 36.3051001 69 35.95410156 C68.30358398 35.60647766 67.60716797 35.25885376 66.88964844 34.9006958 C64.58519293 33.74567753 62.29290453 32.56838489 60 31.390625 C58.40174433 30.58403504 56.80277518 29.7788574 55.203125 28.97503662 C50.98886863 26.85262375 46.78456581 24.71118251 42.58203125 22.56567383 C38.31047331 20.3891018 34.02989997 18.23042115 29.75 16.0703125 C22.83467588 12.57745427 15.92512941 9.07346844 9.02246094 5.55566406 C6.02043731 4.02599403 3.01664509 2.50066309 0 1 C0 0.67 0 0.34 0 0 Z "
       fill="#040507"
       transform="translate(991,579)"
       id="path17" />
    <path
       d="M0 0 C4.96059553 0.23747532 7.43869477 2.97153663 10.75 6.3125 C26.79502693 21.72808248 48.94065276 36.20685788 71 41 C71 41.66 71 42.32 71 43 C69.89188965 43.11069824 68.7837793 43.22139648 67.64208984 43.33544922 C63.46324002 43.75370606 59.28479237 44.17587363 55.10644531 44.59912109 C53.31065147 44.7804982 51.51475538 44.96086633 49.71875 45.14013672 C40.1166023 46.09927982 30.56014625 47.10350038 21.02978516 48.63720703 C17.62100728 49.0453814 14.42842867 49.23539083 11 49 C9.59431196 47.05017465 8.2704964 45.04049422 7 43 C5.6433538 42.46759524 4.27773088 41.95777777 2.90625 41.46484375 C0.74829102 40.1706543 0.74829102 40.1706543 -1 38 C-2.0855818 31.74154358 -1.79420654 25.57623719 -1.5625 19.25 C-1.53093298 17.49875866 -1.50289911 15.74744984 -1.47851562 13.99609375 C-1.24483736 1.24483736 -1.24483736 1.24483736 0 0 Z "
       fill="#050609"
       transform="translate(871,336)"
       id="path18" />
    <path
       d="M0 0 C0.33 0 0.66 0 1 0 C1.06049985 5.21643112 1.05240711 10.42939383 1.01220703 15.64599609 C1.00081261 18.77672711 1.02211455 21.90617227 1.04820251 25.03677368 C1.06215955 27.90979065 1.04005334 30.78191064 1.01119995 33.65478516 C1.0037646 35.08723555 1.01026007 36.51982943 1.03103638 37.95214844 C1.1844004 49.550576 1.1844004 49.550576 -1.77954102 53.17773438 C-3.94140625 54.76953125 -3.94140625 54.76953125 -6.09594727 55.94067383 C-9.13348103 57.630616 -9.90933158 59.79215172 -11 63 C-11.05317383 64.30211426 -11.10634766 65.60422852 -11.16113281 66.94580078 C-11.58971326 70.52704028 -11.7788566 70.82126501 -14.78808594 73.25341797 C-16.00507459 73.86409335 -17.23878146 74.44220336 -18.484375 74.9921875 C-19.13698303 75.30906525 -19.78959106 75.62594299 -20.4619751 75.9524231 C-22.54554511 76.95566836 -24.64615744 77.91511581 -26.75 78.875 C-28.14975181 79.54151764 -29.5482083 80.21076284 -30.9453125 80.8828125 C-36.23524696 83.40933308 -41.53183206 85.87723182 -47 88 C-45.67781438 84.56690963 -44.19452917 81.30551251 -42.49609375 78.04296875 C-42.00753906 77.10388672 -41.51898437 76.16480469 -41.015625 75.19726562 C-40.23445312 73.70743164 -40.23445312 73.70743164 -39.4375 72.1875 C-38.89738281 71.15431641 -38.35726562 70.12113281 -37.80078125 69.05664062 C-34.45242602 62.68127706 -31.00572444 56.37759424 -27.42871094 50.12841797 C-24.19264306 44.43576251 -21.18924427 38.63139188 -18.1875 32.8125 C-12.4435324 21.68797763 -6.30527475 10.81459369 0 0 Z "
       fill="#06070A"
       transform="translate(956,505)"
       id="path19" />
    <path
       d="M0 0 C5.85705074 1.23878253 11.65823519 2.55737542 17.37890625 4.32421875 C42.29205461 11.98842032 68.10845656 15.56721027 94 18 C96.11334372 18.20639258 98.22662615 18.41341377 100.33984375 18.62109375 C105.22514705 19.09704868 110.11181452 19.55466692 115 20 C111.69383489 23.55895554 107.80149217 25.53106089 103.5625 27.8125 C102.79873047 28.24498047 102.03496094 28.67746094 101.24804688 29.12304688 C100.50748047 29.52201172 99.76691406 29.92097656 99.00390625 30.33203125 C97.99565796 30.88467651 97.99565796 30.88467651 96.96704102 31.44848633 C95 32 95 32 92.94897461 31.20581055 C92.30581299 30.80789307 91.66265137 30.40997559 91 30 C85.6449906 27.26999521 81.03282273 25.86562308 75 27 C71.4004032 28.63893952 67.8124439 30.3751122 66 34 C59.77481545 32.7639891 53.88303388 31.09000282 47.9375 28.875 C47.11822021 28.57005615 46.29894043 28.2651123 45.45483398 27.95092773 C28.78582863 21.59630257 13.40242355 12.89020319 0 1 C0 0.67 0 0.34 0 0 Z "
       fill="#06080B"
       transform="translate(893,336)"
       id="path20" />
    <path
       d="M0 0 C-1.32022419 3.45064709 -2.82206449 6.68240276 -4.58203125 9.9296875 C-5.09515869 10.8779541 -5.60828613 11.8262207 -6.13696289 12.80322266 C-6.68989014 13.81690918 -7.24281738 14.8305957 -7.8125 15.875 C-8.67766235 17.46707275 -8.67766235 17.46707275 -9.56030273 19.09130859 C-14.0136788 27.25834946 -18.57124316 35.36324371 -23.16845703 43.44995117 C-27.072686 50.3277844 -30.90270453 57.24324808 -34.6875 64.1875 C-35.19289307 65.11449707 -35.69828613 66.04149414 -36.21899414 66.99658203 C-38.19922057 70.64058059 -40.16298916 74.28125018 -42 78 C-42.33 78 -42.66 78 -43 78 C-42.50340489 68.52548794 -41.80482221 59.10383893 -40.71777344 49.67773438 C-40.23645262 45.49248599 -39.96373348 41.40234029 -39.875 37.1875 C-39.61196877 34.3672207 -39.36830144 33.36397866 -37.3359375 31.35546875 C-35.9397096 30.36451299 -34.51805005 29.40849689 -33.07421875 28.48828125 C-29.6806569 26.05335269 -27.57280749 22.84089039 -26 19 C-25.94972656 17.84757812 -25.89945313 16.69515625 -25.84765625 15.5078125 C-25 12 -25 12 -23.53833008 10.75268555 C-21.52397863 9.63816969 -19.49622122 8.70674032 -17.375 7.8125 C-15.96526053 7.1751316 -14.55639818 6.53581946 -13.1484375 5.89453125 C-12.45717773 5.58854004 -11.76591797 5.28254883 -11.05371094 4.96728516 C-8.99644994 3.99832794 -7.05970257 2.91640218 -5.1015625 1.76171875 C-2 0 -2 0 0 0 Z "
       fill="#07090C"
       transform="translate(1018,366)"
       id="path21" />
    <path
       d="M0 0 C1.09410722 2.73122778 1.06864773 3.81994258 0.00292969 6.61523438 C-0.77969238 8.08959961 -0.77969238 8.08959961 -1.578125 9.59375 C-2.44703369 11.2502356 -2.44703369 11.2502356 -3.33349609 12.94018555 C-3.97196334 14.12698808 -4.61080545 15.31358902 -5.25 16.5 C-5.89102848 17.71022143 -6.53115957 18.9209186 -7.17041016 20.13208008 C-12.65464064 30.48908325 -18.28391015 40.76936571 -24 51 C-24.66 51 -25.32 51 -26 51 C-24.17237035 46.03884033 -21.72903228 41.41284894 -19.31640625 36.71875 C-18.63214821 35.3820929 -18.63214821 35.3820929 -17.93406677 34.01843262 C-16.97103615 32.13852737 -16.00690554 30.25918527 -15.04174805 28.38037109 C-13.56846351 25.51161206 -12.09940891 22.64071653 -10.63085938 19.76953125 C-9.69296042 17.93997492 -8.7548175 16.11054362 -7.81640625 14.28125 C-7.37881485 13.42591675 -6.94122345 12.5705835 -6.4903717 11.68933105 C-4.44435155 7.71188121 -2.3712664 3.79711647 0 0 Z "
       fill="#839BDE"
       transform="translate(956,395)"
       id="path25" />
    <path
       d="M0 0 C0.5775 0.226875 1.155 0.45375 1.75 0.6875 C0.95335937 1.12449219 0.95335937 1.12449219 0.140625 1.5703125 C-5.20766341 4.67388132 -8.63314518 7.64536294 -11 13.5625 C-11.93187797 21.48346276 -11.00614211 26.77555636 -6.3125 33.4375 C-4.41616162 35.50623278 -2.5664821 37.11560143 -0.25 38.6875 C-5.60094036 38.05201827 -7.44636726 35.8315 -10.734375 31.79296875 C-14.67506011 26.31866649 -15.06344266 20.23675627 -14.25 13.6875 C-12.14495801 8.5126051 -6.39951456 -0.88882147 0 0 Z "
       fill="#849BE3"
       transform="translate(835.25,612.3125)"
       id="path28" />
    <path
       d="M0 0 C0.66 0 1.32 0 2 0 C0.40109514 5.19644079 -1.74138003 10.06612142 -4 15 C-4.66 15 -5.32 15 -6 15 C-6.20625 15.763125 -6.4125 16.52625 -6.625 17.3125 C-8.55894391 22.49898594 -11.2785146 27.19033084 -14 32 C-15 29 -15 29 -14.16723633 26.75097656 C-13.72661865 25.88956055 -13.28600098 25.02814453 -12.83203125 24.140625 C-12.35056641 23.18929688 -11.86910156 22.23796875 -11.37304688 21.2578125 C-10.85806641 20.26523437 -10.34308594 19.27265625 -9.8125 18.25 C-9.31685547 17.27289063 -8.82121094 16.29578125 -8.31054688 15.2890625 C-5.66980494 10.11223155 -2.93512683 5.0156344 0 0 Z "
       fill="#89A2E9"
       transform="translate(1048,394)"
       id="path30" />
    <path
       d="M0 0 C1 3 1 3 0.375 5.25 C-0.07149697 8.52431109 0.91310185 10.19087062 2.28125 13.1171875 C3.88517351 17.31876973 3.71303092 21.19427234 2.09765625 25.28515625 C1.13006473 27.23755623 0.11495309 29.1284716 -1 31 C-1.99 31 -2.98 31 -4 31 C-3.01 29.515 -3.01 29.515 -2 28 C0.23334375 24.04992226 0.75422598 20.47393139 0 16 C-0.72266321 13.94983589 -1.55079125 11.96544637 -2.390625 9.9609375 C-3.37984131 6.77769014 -2.83799671 4.15860297 -2 1 C-1.34 0.67 -0.68 0.34 0 0 Z "
       fill="#8AA3E6"
       transform="translate(981,456)"
       id="path31" />
    <path
       d="M0 0 C0.53625 0.2475 1.0725 0.495 1.625 0.75 C1.00625 0.8325 0.3875 0.915 -0.25 1 C-3.05005419 1.98825442 -3.11613932 3.15359985 -4.375 5.75 C-5.01953125 5.96527344 -5.6640625 6.18054688 -6.328125 6.40234375 C-8.76264709 7.69166376 -8.76264709 7.69166376 -9.421875 11.2265625 C-9.67393528 12.6062609 -9.90770133 13.98940145 -10.125 15.375 C-10.25003906 16.08140625 -10.37507812 16.7878125 -10.50390625 17.515625 C-10.8099525 19.25773442 -11.09455406 21.00358664 -11.375 22.75 C-11.705 22.75 -12.035 22.75 -12.375 22.75 C-12.99657744 11.11268901 -12.99657744 11.11268901 -10.75 6.1875 C-4.28197674 -0.45073439 -4.28197674 -0.45073439 0 0 Z "
       fill="#8598E0"
       transform="translate(959.375,458.25)"
       id="path33" />
    <path
       d="M0 0 C0.99561083 2.609187 1.10297218 3.72634253 0.10375977 6.38183594 C-0.36231689 7.24067383 -0.82839355 8.09951172 -1.30859375 8.984375 C-1.80810547 9.91894531 -2.30761719 10.85351562 -2.82226562 11.81640625 C-3.35529297 12.78449219 -3.88832031 13.75257813 -4.4375 14.75 C-4.96666016 15.73355469 -5.49582031 16.71710938 -6.04101562 17.73046875 C-7.34997465 20.15970802 -8.66988469 22.58229934 -10 25 C-10.66 25 -11.32 25 -12 25 C-10.37317535 19.29676416 -7.66802013 14.31986097 -4.875 9.125 C-4.40707031 8.24585938 -3.93914063 7.36671875 -3.45703125 6.4609375 C-2.3087907 4.30505729 -1.15636097 2.15153223 0 0 Z "
       fill="#8095D6"
       transform="translate(956,395)"
       id="path35" />
    <path
       d="M0 0 C0.66 0 1.32 0 2 0 C0.48968084 5.26122171 -1.90374191 9.67232586 -4.625 14.375 C-5.04523437 15.11105469 -5.46546875 15.84710938 -5.8984375 16.60546875 C-6.92752764 18.4063765 -7.96310756 20.20357318 -9 22 C-9.89753304 19.53847306 -10.14514362 18.38006044 -9.19555664 15.89355469 C-8.77137451 15.16040039 -8.34719238 14.42724609 -7.91015625 13.671875 C-7.45576172 12.87265625 -7.00136719 12.0734375 -6.53320312 11.25 C-6.04787109 10.425 -5.56253906 9.6 -5.0625 8.75 C-4.58103516 7.90953125 -4.09957031 7.0690625 -3.60351562 6.203125 C-2.41316035 4.12884253 -1.21180052 2.06180335 0 0 Z "
       fill="#8D9FE4"
       transform="translate(947,495)"
       id="path37" />
    <path
       d="M0 0 C0.33 1.32 0.66 2.64 1 4 C2.32 4 3.64 4 5 4 C4.42365861 8.75481646 2.44931479 11.97048212 0 16 C-0.33 16 -0.66 16 -1 16 C-0.67 10.72 -0.34 5.44 0 0 Z "
       fill="#111722"
       transform="translate(976,428)"
       id="path38" />
    <path
       d="M0 0 C-0.57344937 2.86724686 -0.8614515 3.8614515 -3 6 C-3.99 6 -4.98 6 -6 6 C-6.66 9.63 -7.32 13.26 -8 17 C-8.33 17 -8.66 17 -9 17 C-9.38434943 12.19563218 -9.47968712 8.90975143 -7.1875 4.5625 C-3.29268293 0 -3.29268293 0 0 0 Z "
       fill="#809EE8"
       transform="translate(954,558)"
       id="path40" />
    <path
       d="M0 0 C0.66 0 1.32 0 2 0 C1.71125 0.845625 1.4225 1.69125 1.125 2.5625 C-0.05187082 6.00470017 -0.05187082 6.00470017 -0.875 9.625 C-2.04660557 13.13981672 -3.19154878 14.65962399 -6 17 C-6.34884724 12.10160332 -5.46792622 9.34104063 -3 5.125 C-2.443125 4.15820312 -1.88625 3.19140625 -1.3125 2.1953125 C-0.879375 1.47085938 -0.44625 0.74640625 0 0 Z "
       fill="#7C9FE7"
       transform="translate(934,519)"
       id="path41" />
    <path
       d="M0 0 C0.95544559 3.03532715 1.11111941 3.73682246 -0.1875 6.8125 C-0.785625 7.864375 -1.38375 8.91625 -2 10 C-2.34933594 10.61746094 -2.69867187 11.23492187 -3.05859375 11.87109375 C-4.03140648 13.58509714 -5.01513183 15.29289517 -6 17 C-6.33 17.66 -6.66 18.32 -7 19 C-7.66 19 -8.32 19 -9 19 C-7.6077541 14.37324343 -5.70479016 10.35313769 -3.375 6.125 C-2.74335937 4.97257812 -2.11171875 3.82015625 -1.4609375 2.6328125 C-0.97882813 1.76398438 -0.49671875 0.89515625 0 0 Z "
       fill="#0F151F"
       transform="translate(1085,359)"
       id="path45" />
    <path
       d="M0 0 C2.58215672 2.58215672 2.29794465 3.72703127 2.3125 7.3125 C2.24945178 11.68002181 1.87413657 14.52708497 -1 18 C-2.25985286 14.22044143 -1.64024579 11.15576548 -1.0625 7.3125 C-0.96259766 6.61060547 -0.86269531 5.90871094 -0.75976562 5.18554688 C-0.51270675 3.45613473 -0.25717148 1.7279373 0 0 Z "
       fill="#819AE2"
       transform="translate(1105,625)"
       id="path47" />
    <path
       d="M0 0 C4.29 0.99 8.58 1.98 13 3 C11.68 4.32 10.36 5.64 9 7 C5.18315774 5.44499019 2.80804268 2.96404505 0 0 Z "
       fill="#0D101D"
       transform="translate(893,336)"
       id="path48" />
    <path
       d="M0 0 C0.66 0 1.32 0 2 0 C2.4125 1.051875 2.825 2.10375 3.25 3.1875 C5.43593643 8.26749312 8.41012686 11.88544323 13 15 C7.6617581 14.36493329 5.77014392 12.14260819 2.44921875 8.14453125 C0.64047825 5.46798534 0.08045217 3.21808671 0 0 Z "
       fill="#89A0E9"
       transform="translate(822,636)"
       id="path49" />
    <path
       d="M0 0 C0.66 0.33 1.32 0.66 2 1 C-0.475 5.455 -0.475 5.455 -3 10 C-3.33 10 -3.66 10 -4 10 C-4.125 3.25 -4.125 3.25 -3 1 C-2.01 0.67 -1.02 0.34 0 0 Z "
       fill="#090C11"
       transform="translate(974,530)"
       id="path50" />
    <path
       d="M0 0 C0.97226335 2.59072612 1.11611108 3.69699083 0.109375 6.32421875 C-0.33921875 7.10410156 -0.7878125 7.88398438 -1.25 8.6875 C-1.68828125 9.47511719 -2.1265625 10.26273437 -2.578125 11.07421875 C-4 13 -4 13 -7 14 C-5.23570801 9.02790438 -2.6060834 4.56561939 0 0 Z "
       fill="#8394D7"
       transform="translate(1074,346)"
       id="path51" />
    <path
       d="M0 0 C0.66 0 1.32 0 2 0 C0.58707905 4.8274799 -1.42974154 8.7162359 -4 13 C-5.0169313 10.34501768 -5.13022151 9.30844625 -4.00390625 6.640625 C-3.52824219 5.85171875 -3.05257812 5.0628125 -2.5625 4.25 C-2.08941406 3.45078125 -1.61632812 2.6515625 -1.12890625 1.828125 C-0.75636719 1.22484375 -0.38382813 0.6215625 0 0 Z "
       fill="#93A3E5"
       transform="translate(943,420)"
       id="path53" />
    <path
       d="M0 0 C1.14229879 3.42689636 0.90861076 5.61102218 0.5625 9.1875 C0.46066406 10.27417969 0.35882812 11.36085938 0.25390625 12.48046875 C0.12822266 13.72763672 0.12822266 13.72763672 0 15 C-0.33 15 -0.66 15 -1 15 C-1.33 12.69 -1.66 10.38 -2 8 C-2.99 8.495 -2.99 8.495 -4 9 C-2.94124926 5.59687262 -1.99097846 2.98646769 0 0 Z "
       fill="#2C3A58"
       transform="translate(965,412)"
       id="path54" />
    <path
       d="M0 0 C0.66 0 1.32 0 2 0 C0.78065514 4.03321763 -0.55954927 7.54269479 -3 11 C-3.66 11 -4.32 11 -5 11 C-3.78065514 6.96678237 -2.44045073 3.45730521 0 0 Z "
       fill="#8095DB"
       transform="translate(852,592)"
       id="path55" />
    <path
       d="M0 0 C0.53625 0.2475 1.0725 0.495 1.625 0.75 C1.00625 0.8325 0.3875 0.915 -0.25 1 C-2.55846804 1.53810733 -2.55846804 1.53810733 -3.375 3.75 C-4.375 5.75 -4.375 5.75 -6.5 6.5 C-7.428125 6.62375 -7.428125 6.62375 -8.375 6.75 C-8.375 5.76 -8.375 4.77 -8.375 3.75 C-3.35945596 -0.35362694 -3.35945596 -0.35362694 0 0 Z "
       fill="#8DA8EF"
       transform="translate(959.375,458.25)"
       id="path56" />
    <path
       d="M0 0 C3.66666667 3.66666667 7.33333333 7.33333333 11 11 C8.15301606 10.91626518 6.448839 10.40889548 4.33203125 8.48046875 C0 3.59278504 0 3.59278504 0 0 Z "
       fill="#8D9FEA"
       transform="translate(1066,640)"
       id="path58" />
    <path
       d="M0 0 C0.66 0 1.32 0 2 0 C1.01 2.97 0.02 5.94 -1 9 C-1.66 9 -2.32 9 -3 9 C-2.44271087 5.65626525 -1.64826111 2.96687001 0 0 Z "
       fill="#819EE9"
       transform="translate(1054,383)"
       id="path63" />
    <path
       d="M0 0 C0 0.66 0 1.32 0 2 C-0.928125 2.433125 -1.85625 2.86625 -2.8125 3.3125 C-5.47184073 4.72038627 -7.08105905 5.76123556 -9 8 C-8.66410006 4.86493389 -7.97334828 3.974751 -5.625 1.75 C-3 0 -3 0 0 0 Z "
       fill="#8BA4EE"
       transform="translate(854,376)"
       id="path64" />
    <path
       d="M0 0 C0.75 1.5625 0.75 1.5625 1 4 C-0.13084437 6.50286409 -1.52139516 8.67007722 -3 11 C-3.75 9.4375 -3.75 9.4375 -4 7 C-2.86915563 4.49713591 -1.47860484 2.32992278 0 0 Z "
       fill="#869BDD"
       transform="translate(941,506)"
       id="path66" />
    <path
       d="M0 0 C2.97 0 5.94 0 9 0 C8.67 0.99 8.34 1.98 8 3 C2.25 2.25 2.25 2.25 0 0 Z "
       fill="#0C0C14"
       transform="translate(897,323)"
       id="path69" />
    <path
       d="M0 0 C0.66 0 1.32 0 2 0 C0.90931332 3.77545388 0.0916909 6.47043472 -3 9 C-2.44271087 5.65626525 -1.64826111 2.96687001 0 0 Z "
       fill="#889AE4"
       transform="translate(1062,368)"
       id="path72" />
    <path
       d="M0 0 C0.33 0.99 0.66 1.98 1 3 C-0.32 4.32 -1.64 5.64 -3 7 C-3.625 5.125 -3.625 5.125 -4 3 C-2 1 -2 1 0 0 Z "
       fill="#729DE7"
       transform="translate(923,462)"
       id="path73" />
  </g>
</svg>
